<svg width="500" height="357" viewBox="0 0 500 357" fill="none" xmlns="http://www.w3.org/2000/svg">
<g clip-path="url(#clip0_16921_28)">
<path d="M112.565 171.616C119.421 171.635 126.269 171.188 133.06 170.277C139.116 169.547 144.991 167.792 150.413 165.094C155.353 162.573 159.496 158.817 162.405 154.22C165.427 149.541 166.939 143.412 166.939 135.832C166.939 128.252 165.427 122.118 162.405 117.432C159.489 112.844 155.348 109.093 150.413 106.57C144.989 103.876 139.115 102.122 133.06 101.387C126.269 100.482 119.42 100.034 112.565 100.048H64.451V171.616H112.565ZM129.522 59.2422C147.111 59.2422 162.094 61.4161 174.47 65.7641C186.846 70.1121 196.904 75.8529 204.643 82.9867C212.148 89.7798 217.947 98.1289 221.6 107.401C228.7 125.679 228.7 145.811 221.6 164.09C217.984 173.43 212.182 181.843 204.643 188.677C196.88 195.811 186.822 201.551 174.47 205.899C162.118 210.247 147.135 212.421 129.522 212.421H64.451V298.038H2.5459V59.2422H129.522Z" fill="white"/>
<path d="M432.608 122.951C428.813 117.831 424.146 113.366 418.804 109.745C413.082 105.862 406.761 102.87 400.072 100.88C392.998 98.7387 385.625 97.6564 378.21 97.6708C364.267 97.6708 352.434 99.9564 342.712 104.528C333.419 108.76 325.308 115.063 319.051 122.916C312.934 130.768 308.454 139.685 305.859 149.177C303.073 159.104 301.669 169.344 301.686 179.628C301.67 189.519 303.066 199.365 305.835 208.89C308.48 218.155 312.959 226.841 319.027 234.47C325.322 242.246 333.427 248.489 342.688 252.697C352.418 257.268 364.251 259.554 378.186 259.554C397.094 259.554 411.885 254.648 422.558 244.836C433.231 235.024 439.739 222.092 442.082 206.039H502.044C500.704 220.191 496.525 233.958 489.74 246.579C483.328 258.429 474.473 268.897 463.716 277.342C452.482 286.052 439.635 292.637 425.856 296.746C410.413 301.352 394.317 303.611 378.15 303.441C356.564 303.441 337.172 300.263 319.975 293.906C302.777 287.55 288.254 278.796 276.406 267.645C264.589 256.535 255.32 243.166 249.195 228.398C242.805 212.882 239.607 196.318 239.781 179.628C239.622 162.654 242.833 145.806 249.243 129.992C255.353 115.008 264.618 101.402 276.454 90.0292C288.326 78.6552 302.849 69.7284 320.023 63.2488C337.196 56.7692 356.591 53.5371 378.21 53.5525C393.068 53.4725 407.866 55.3879 422.174 59.2433C435.387 62.7743 447.909 68.3661 459.243 75.7963C470.034 82.9353 479.219 92.0945 486.25 102.727C493.511 113.875 498.092 126.444 499.657 139.515H439.695C438.665 133.547 436.25 127.882 432.608 122.951Z" fill="white"/>
</g>
<defs>
<clipPath id="clip0_16921_28">
<rect width="500" height="357" fill="white"/>
</clipPath>
</defs>
</svg>
