<svg width="153" height="32" viewBox="0 0 153 32" fill="none" xmlns="http://www.w3.org/2000/svg">
<path d="M15.8037 0V29.8458L22.5558 31.9884V6.96055C22.5558 5.79081 23.077 5.00326 23.9224 5.28122C25.0227 5.58234 25.2427 6.67101 25.2427 7.84075V17.8357C29.4584 19.8741 32.7708 17.8357 32.7708 12.4734C32.7708 7.11111 30.8366 4.52841 25.1153 2.55954C22.8569 1.79515 18.676 0.532754 15.8037 0Z" fill="white"/>
<mask id="mask0_1911_31" style="mask-type:luminance" maskUnits="userSpaceOnUse" x="0" y="0" width="153" height="32">
<path d="M152.594 0H0.295898V32H152.594V0Z" fill="white"/>
</mask>
<g mask="url(#mask0_1911_31)">
<path d="M23.8413 27.6337L34.7049 23.7655C35.9325 23.3254 36.1294 22.7 35.1218 22.3757C34.1258 22.0514 32.3075 22.1441 31.0798 22.5842L23.8413 25.1321V21.0785L24.2582 20.9396C24.2582 20.9396 26.3545 20.1983 29.2962 19.8741C32.238 19.5498 35.8399 19.9204 38.6658 20.9859C41.8507 21.9935 42.2098 23.4759 41.399 24.4951C40.5883 25.5143 38.6079 26.2439 38.6079 26.2439L23.8413 31.5483V27.6337Z" fill="white"/>
<path d="M3.41152 27.2168C0.145503 26.2903 -0.410415 24.3793 1.08361 23.2675C2.46183 22.2483 4.81289 21.4839 4.81289 21.4839L14.4951 18.0442V21.9703L7.52299 24.4604C6.29534 24.9005 6.11003 25.5259 7.10605 25.8502C8.11365 26.1745 9.92039 26.0818 11.148 25.6417L14.4951 24.4256V27.9349C14.2867 27.9696 14.0434 28.0043 13.835 28.0391C10.4879 28.5834 6.93233 28.3634 3.4231 27.2052" fill="white"/>
</g>
<path d="M39.245 31.9421C39.662 31.9421 40.0673 31.7799 40.3684 31.4788C40.6696 31.1777 40.8317 30.7839 40.8317 30.3554C40.8317 29.9269 40.6696 29.5447 40.3684 29.2436C40.0673 28.9424 39.6735 28.7803 39.245 28.7803C38.3764 28.7803 37.6699 29.4984 37.6699 30.367C37.6699 30.7955 37.8321 31.1893 38.1332 31.4904C38.4343 31.7915 38.8281 31.9537 39.2566 31.9537M37.9247 30.3554C37.9247 30.008 38.0637 29.6721 38.3069 29.4289C38.5501 29.1741 38.886 29.0467 39.2334 29.0467C39.5809 29.0467 39.9168 29.1857 40.16 29.4289C40.4148 29.6721 40.5422 30.008 40.5422 30.3554C40.5422 31.085 39.9515 31.6757 39.2334 31.6757C38.886 31.6757 38.5501 31.5367 38.3069 31.2935C38.0637 31.0503 37.9247 30.7144 37.9247 30.367V30.3554Z" fill="white"/>
<path d="M40.0208 31.0966C40.0208 31.0966 39.9861 31.0619 39.9629 31.0156C39.9629 30.9924 39.9629 30.9461 39.9513 30.8766V30.6565C39.9397 30.5523 39.9166 30.4712 39.8818 30.4249C39.8587 30.3902 39.8239 30.3554 39.7776 30.3323C39.8355 30.2975 39.8702 30.2512 39.905 30.2049C39.9513 30.1354 39.9745 30.0427 39.9745 29.9385C39.9745 29.73 39.8818 29.5795 39.7197 29.51C39.627 29.4636 39.5228 29.4521 39.3838 29.4521H38.5615V31.2125H38.8626V30.4944H39.3375C39.4186 30.4944 39.4881 30.506 39.5228 30.5291C39.5807 30.5639 39.6155 30.6218 39.6155 30.7145V30.9924C39.6386 31.0619 39.6386 31.1082 39.6386 31.1314C39.6386 31.1546 39.6502 31.1777 39.6618 31.2009V31.224H40.0092V31.1198H39.9861M39.6734 29.9616C39.6734 30.0543 39.6502 30.1238 39.5923 30.1585C39.5344 30.1933 39.4649 30.2164 39.3607 30.2164H38.8742V29.7184H39.3954C39.4649 29.7184 39.5228 29.7184 39.5691 29.7532C39.6386 29.7879 39.6734 29.8574 39.6734 29.9616Z" fill="white"/>
<path d="M117.085 7.57439H104.194C100.454 7.57439 98.6237 9.87913 98.6237 12.8788V21.9935C98.6237 23.8466 97.7435 25.19 95.8788 25.19H83.7645C83.6834 25.19 83.6255 25.2479 83.6255 25.329V27.1589C83.6255 27.24 83.6834 27.2979 83.7645 27.2979H97.2802C101.021 27.2979 102.851 24.9931 102.851 21.9935V12.8672C102.851 11.0141 103.731 9.67066 105.584 9.67066H117.073C117.154 9.67066 117.212 9.61275 117.212 9.53168V7.70178C117.212 7.62071 117.154 7.56281 117.073 7.56281" fill="white"/>
<path d="M78.993 7.57437H55.6677C55.5866 7.57437 55.5287 7.63228 55.5287 7.71335V9.54325C55.5287 9.62432 55.5866 9.68222 55.6677 9.68222H77.5916C79.4447 9.68222 80.3249 11.0257 80.3249 12.8788C80.3249 14.7318 79.4447 16.0753 77.5916 16.0753H60.2424C57.5555 16.0753 55.5171 18.3337 55.5171 21.3333V27.1589C55.5171 27.24 55.5866 27.2979 55.6561 27.2979H59.6054C59.6865 27.2979 59.7444 27.24 59.7444 27.1589V21.3333C59.7444 19.4803 60.8215 18.1831 62.3502 18.1831H78.9699C82.7107 18.1831 84.5406 15.89 84.5406 12.8903C84.5406 9.89069 82.7107 7.58595 78.9699 7.58595" fill="white"/>
<path d="M139.356 22.9316C139.356 23.0127 139.298 23.0706 139.217 23.0706H120.71C120.559 23.0706 120.478 23.0358 120.455 22.9779C120.432 22.8969 120.478 22.8274 120.594 22.7579L139.009 11.4195C139.136 11.3384 139.345 11.35 139.345 11.6048V22.9316H139.356ZM147.695 23.0822H143.746C143.664 23.0822 143.607 23.0127 143.607 22.9432V9.67065C143.607 7.63228 142.194 6.96055 140.213 8.1882L116.436 22.781C115.498 23.3601 115.185 23.9971 115.417 24.4835C115.614 24.9005 116.123 25.1784 117.154 25.1784H139.229C139.287 25.1784 139.345 25.2248 139.356 25.2827V27.1473C139.356 27.2284 139.414 27.2863 139.495 27.2863H143.468C143.549 27.2863 143.607 27.2168 143.607 27.1473V25.329C143.607 25.2479 143.676 25.19 143.746 25.19H147.706C147.788 25.19 147.845 25.1321 147.845 25.051V23.2211C147.845 23.1516 147.788 23.0822 147.706 23.0822" fill="white"/>
<path d="M151.019 27.3326C151.436 27.3326 151.841 27.1705 152.131 26.8694C152.42 26.5682 152.594 26.1745 152.594 25.7459C152.594 25.3174 152.432 24.9352 152.131 24.6341C151.83 24.333 151.436 24.1708 151.019 24.1708C150.139 24.1708 149.444 24.8889 149.444 25.7575C149.444 26.186 149.606 26.5798 149.907 26.8809C150.208 27.1821 150.602 27.3442 151.031 27.3442M149.699 25.7459C149.699 25.3985 149.838 25.0626 150.081 24.8194C150.324 24.5646 150.66 24.4372 151.007 24.4372C151.355 24.4372 151.691 24.5762 151.934 24.8194C152.189 25.0626 152.316 25.3985 152.316 25.7459C152.316 26.4756 151.725 27.0662 151.007 27.0662C150.648 27.0662 150.324 26.9273 150.081 26.684C149.826 26.4408 149.699 26.105 149.699 25.7575V25.7459Z" fill="white"/>
<path d="M151.795 26.4871C151.795 26.4871 151.76 26.4524 151.749 26.4061C151.749 26.3829 151.749 26.3366 151.737 26.2671V26.047C151.725 25.9428 151.702 25.8617 151.667 25.8154C151.644 25.7807 151.61 25.7459 151.563 25.7228C151.621 25.688 151.667 25.6417 151.691 25.5954C151.737 25.5259 151.76 25.4332 151.76 25.329C151.76 25.1205 151.667 24.97 151.505 24.9005C151.413 24.8541 151.308 24.8426 151.169 24.8426H150.347V26.603H150.648V25.8849H151.123C151.204 25.8849 151.274 25.8965 151.32 25.9081C151.378 25.9428 151.413 26.0007 151.413 26.105V26.3829C151.436 26.4524 151.436 26.4987 151.436 26.5219C151.436 26.5451 151.447 26.5682 151.459 26.5914V26.6145H151.818V26.5103H151.795M151.447 25.3521C151.447 25.4448 151.424 25.5143 151.366 25.549C151.308 25.5838 151.227 25.6069 151.135 25.6069H150.648V25.1089H151.169C151.239 25.1089 151.297 25.1089 151.343 25.1437C151.413 25.1784 151.447 25.2479 151.447 25.3521Z" fill="white"/>
</svg>
