<svg width="161" height="32" viewBox="0 0 161 32" fill="none" xmlns="http://www.w3.org/2000/svg">
<path d="M102.847 25.8032L96.7495 17.5327L90.6602 25.8032H88.1484L95.4771 15.8058L88.7846 6.71727H91.2964L96.7495 14.1286L102.203 6.71727H104.714L98.0219 15.8058L105.359 25.8032H102.847Z" fill="white"/>
<path d="M55.3305 25.8032L47.9936 15.8058L54.6861 6.71727H52.1826L46.7212 14.1286L41.2681 6.71727H38.7728L45.4571 15.8058L38.1201 25.8032H40.6319L46.7212 17.5327L52.8188 25.8032H55.3305Z" fill="white"/>
<path d="M64.1217 23.812H58.5116V16.8634H64.1217C66.2452 16.8634 68.79 17.45 68.79 20.1849C68.79 23.3328 65.8651 23.8038 64.1217 23.8038V23.812ZM58.5116 8.7085H64.1217C65.642 8.7085 68.1785 9.08857 68.1785 11.7408C68.1785 13.7485 66.6996 14.9466 64.1217 14.9466H58.5116V8.7085ZM69.2857 16.5247C68.8891 16.1859 68.4595 15.9215 68.0381 15.7315C69.4262 14.9796 70.335 13.5585 70.335 11.906C70.335 10.6832 69.8806 6.70901 64.13 6.70901H56.3799V14.9383H53.7938C53.4633 15.3762 52.7032 16.4255 52.4058 16.8552H56.3717V25.795H64.1217C68.319 25.795 70.9299 23.6633 70.9299 20.2262C70.9299 18.7224 70.3598 17.4418 69.2857 16.5164" fill="white"/>
<path d="M81.0181 24.2086C76.9365 24.2086 74.0695 20.9367 74.0695 16.252C74.0695 11.5673 76.9283 8.29538 81.0181 8.29538C85.108 8.29538 87.942 11.5673 87.942 16.252C87.942 20.9367 85.0915 24.2086 81.0181 24.2086ZM81.0181 6.27937C75.6559 6.27937 71.9048 10.3775 71.9048 16.252C71.9048 22.1265 75.6559 26.2329 81.0181 26.2329C86.3804 26.2329 90.115 22.1348 90.115 16.252C90.115 10.3692 86.3804 6.27937 81.0181 6.27937Z" fill="white"/>
<path d="M142.399 6.71727V22.3826L130.856 6.70901L128.964 6.70074V25.7702H131.096V10.4518L142.399 25.7867H144.522V6.71727H142.399Z" fill="white"/>
<path d="M117.934 24.2086C113.853 24.2086 110.986 20.9367 110.986 16.2437C110.986 11.5507 113.844 8.28711 117.934 8.28711C122.024 8.28711 124.858 11.559 124.858 16.2437C124.858 20.9285 122.016 24.2086 117.934 24.2086ZM117.934 6.2711C112.572 6.2711 108.821 10.3775 108.821 16.2437C108.821 22.11 112.572 26.2246 117.934 26.2246C123.296 26.2246 127.031 22.1265 127.031 16.2437C127.031 10.361 123.296 6.2711 117.934 6.2711Z" fill="white"/>
<path d="M149.05 23.9194V16.8634H159.552V14.9961H149.05V8.56803H160.262V6.70074H146.91V25.7867H160.394V23.9194H149.05Z" fill="white"/>
<path d="M5.54174 4.60211L5.52522 4.61864C2.59209 7.51871 0.766113 11.5425 0.766113 15.9959C0.766113 19.6396 1.98068 22.9941 4.038 25.6876C4.05452 25.7124 4.09583 25.7289 4.12062 25.7124C4.15367 25.6958 4.15367 25.6628 4.13714 25.6297C2.92258 21.8621 9.15238 12.724 12.3747 8.89026C12.3829 8.87374 12.3995 8.86547 12.3995 8.84069C12.3995 8.8159 12.3912 8.79937 12.3747 8.79111C6.9546 3.39581 5.50869 4.63516 5.52522 4.61037" fill="white"/>
<path d="M27.9905 4.60212L28.0071 4.61865C30.9402 7.51872 32.7662 11.5507 32.7662 16.0041C32.7662 19.6478 31.5433 23.0023 29.4943 25.6959C29.4778 25.7206 29.4365 25.7372 29.4117 25.7206C29.3869 25.7041 29.3786 25.6711 29.3869 25.638C30.6097 21.8704 24.3799 12.724 21.1576 8.89027C21.1493 8.87375 21.1328 8.86548 21.1328 8.8407C21.1328 8.81591 21.1493 8.79939 21.1576 8.79112C26.5777 3.39582 28.0153 4.64343 27.9988 4.62691" fill="white"/>
<path d="M16.7704 0C19.9927 0 22.6532 0.884069 25.0988 2.33824C25.1236 2.35476 25.1401 2.38781 25.1236 2.42086C25.1071 2.45391 25.0823 2.45391 25.0492 2.44565C21.9509 1.7764 17.2413 4.45339 16.8034 4.71779C16.7952 4.71779 16.7869 4.72605 16.7704 4.72605C16.7539 4.72605 16.7456 4.72605 16.7373 4.71779C15.5558 4.04028 11.2016 1.75988 8.46675 2.46217C8.43371 2.46217 8.40066 2.46217 8.39239 2.43739C8.37587 2.40434 8.39239 2.37129 8.41718 2.35476C10.8546 0.884069 13.5481 0 16.7704 0Z" fill="white"/>
<path d="M16.77 12.8314C16.77 12.8314 16.8113 12.8479 16.8196 12.8562C21.6035 16.4916 29.7997 25.4975 27.2962 28.0423C24.487 30.5045 20.802 32 16.7618 32C12.7215 32 9.04476 30.5045 6.23556 28.0423C3.74034 25.5058 11.9283 16.4999 16.7122 12.8644C16.7287 12.8562 16.7452 12.8397 16.7618 12.8397" fill="white"/>
</svg>
